<svg xmlns="http://www.w3.org/2000/svg" width="16" height="16" viewBox="0 0 16 16" fill="none">
  <rect x="1" y="1" width="14" height="14" fill="#1271CD"/>
  <path d="M4.26196 8.2799L6.50126 3.2749H8.63476L9.39295 4.9724V3.2749H12.0554L12.4962 4.5874L12.9547 3.2749H15V3.86993H13.3779L12.5139 6.24993L11.6147 3.86993H9.95722V7.70243L8.26453 3.86993H6.87158L5.16125 7.70243H6.34262L6.64236 6.94993H8.44085L8.75823 7.70243H9.95722H11.0152V5.04243L12.0026 7.70243H12.9547L13.9774 5.04243V7.70243H15V8.27993H13.6247L12.4786 9.50493L11.3502 8.27993H9.97486H6.66V12.1299H9.97486H11.3502L12.4786 10.9049L13.6247 12.1299H15V12.7074H13.3426L12.4962 11.7624L11.597 12.7074H6.04282V8.2799H4.26196Z" fill="white"/>
  <path d="M15 12.1299V11.3416L13.9597 10.2224L15 9.13254V8.27993L13.1663 10.2224L15 12.1299Z" fill="white"/>
  <path d="M9.97486 12.1299V11.2724H7.7003V10.6599H9.90433V9.80243H7.7003V9.18993H9.97486V8.27993L11.8086 10.2224L9.97486 12.1299Z" fill="white"/>
  <path d="M7.55924 4.81493L7.01264 6.09243H8.08821L7.55924 4.81493Z" fill="white"/>
</svg>