<svg xmlns="http://www.w3.org/2000/svg" width="14" height="14" viewBox="0 0 14 14" fill="none">
  <path d="M7 0C3.13406 0 0 3.13406 0 7C0 10.8659 3.13406 14 7 14C10.8659 14 14 10.8659 14 7C14 3.13406 10.8659 0 7 0Z" fill="url(#paint0_linear_1_1229)"/>
  <path d="M7 11.4714C4.53056 11.4714 2.52863 9.46947 2.52863 7C2.52863 4.53057 4.53056 2.52863 7 2.52863C9.46943 2.52863 11.4714 4.53057 11.4714 7C11.4714 9.46947 9.46946 11.4714 7 11.4714Z" fill="white"/>
  <path d="M2.81628 6.99999H6.99999V2.81628C4.68942 2.81628 2.81628 4.68945 2.81628 6.99999ZM6.99999 6.99999V11.1837C9.31056 11.1837 11.1837 9.31059 11.1837 6.99999H6.99999Z" fill="url(#paint1_linear_1_1229)"/>
  <path fill-rule="evenodd" clip-rule="evenodd" d="M3.12169 2.67967C3.33678 2.54632 3.56589 2.58974 3.7141 2.7338C3.94184 2.95517 3.90835 3.21113 3.69171 3.4693L2.74358 4.5992L1.33026 3.41326L2.22933 2.34182C2.41541 2.12006 2.67559 1.94296 2.92281 2.1504C2.92738 2.15423 2.93179 2.15791 2.93606 2.16148C3.00326 2.21754 3.03706 2.24574 3.12418 2.4046C3.146 2.46455 3.16277 2.5732 3.12169 2.67967ZM2.72067 2.61176C2.62974 2.53549 2.48835 2.53242 2.42579 2.607L1.88578 3.25053L2.21983 3.53086L2.75374 2.89457C2.82089 2.81459 2.82065 2.69566 2.72067 2.61176ZM2.81282 4.02845L3.37574 3.35761C3.4505 3.26853 3.4397 3.12972 3.33062 3.03824C3.23426 2.95735 3.09138 2.97959 3.0273 3.05596L2.45983 3.73226L2.81282 4.02845Z" fill="white"/>
  <path d="M7.71959 0.938181L7.23422 2.22467H6.83126L6.34586 0.938181V2.22467H5.977V0.382179H6.53122L7.03272 1.69455L7.53423 0.382179H8.08847V2.22467H7.71959V0.938181Z" fill="white"/>
  <path d="M11.4993 3.97448L12.1938 2.99121L11.8879 2.61353L10.7818 3.08843L11.5056 2.14154L11.2205 1.78949L10.0646 3.27633L10.4025 3.69018L11.4944 3.24083L11.4984 3.24571L10.8318 4.22036L11.1664 4.63686L12.861 3.81537L12.576 3.46332L11.4993 3.97448Z" fill="white"/>
  <defs>
    <linearGradient id="paint0_linear_1_1229" x1="2.13836" y1="2.13835" x2="11.5916" y2="12.1317" gradientUnits="userSpaceOnUse">
      <stop offset="0.0273393" stop-color="#949AA0"/>
      <stop offset="0.403335" stop-color="#1A1D1E"/>
      <stop offset="1" stop-color="#040606"/>
    </linearGradient>
    <linearGradient id="paint1_linear_1_1229" x1="6.99999" y1="2.81628" x2="6.99999" y2="11.1837" gradientUnits="userSpaceOnUse">
      <stop stop-color="#7CD1F4"/>
      <stop offset="1" stop-color="#1274B9"/>
    </linearGradient>
  </defs>
</svg>