<svg xmlns="http://www.w3.org/2000/svg" width="48" height="48" viewBox="0 0 48 48" fill="none">
<path d="M35.5398 35.4436L28.0554 27.9653C29.079 26.5272 29.6865 24.7376 29.6865 22.8521C29.6865 17.9627 25.7206 14 20.827 14C15.9338 14.0003 12 17.9629 12 22.8521C12 27.7416 15.966 31.7043 20.8595 31.7043C22.7785 31.7043 24.5376 31.0972 25.9769 30.0745L33.4613 37.5527C33.7492 37.8403 34.133 38 34.5169 38C34.9007 38 35.2846 37.8403 35.5724 37.5527C36.1478 36.9456 36.1474 36.019 35.5398 35.4436ZM14.9418 22.8523C14.9418 19.5927 17.5966 16.972 20.827 16.972C24.0574 16.9723 26.7441 19.5927 26.7441 22.8523C26.7441 26.112 24.0893 28.7327 20.8589 28.7327C17.6284 28.7327 14.9418 26.0801 14.9418 22.8523Z" fill="#414141"/>
</svg>