<svg xmlns="http://www.w3.org/2000/svg" width="15" height="15" viewBox="0 0 15 15" fill="none">
<g clip-path="url(#clip0_1_1170)">
<path d="M12.3752 14.034H2.62516C2.29097 14.034 1.96686 13.9721 1.66183 13.8502C1.36712 13.7324 1.10242 13.5638 0.875072 13.3489C0.647724 13.134 0.469247 12.8839 0.344597 12.6054C0.21558 12.3171 0.150162 12.0108 0.150162 11.695V2.48075C0.150162 2.16493 0.21558 1.85862 0.344597 1.57035C0.469247 1.29184 0.647724 1.04169 0.875072 0.82683C1.10242 0.611974 1.36712 0.443306 1.66183 0.325505C1.96686 0.203577 2.29097 0.141754 2.62516 0.141754H12.3752C12.7093 0.141754 13.0335 0.203577 13.3385 0.325505C13.6332 0.443306 13.8979 0.611974 14.1253 0.82683C14.3526 1.04169 14.5311 1.29184 14.6557 1.57035C14.7847 1.85862 14.8502 2.16493 14.8502 2.48075V11.695C14.8502 12.0108 14.7847 12.3171 14.6557 12.6054C14.5311 12.8839 14.3526 13.134 14.1253 13.3489C13.8979 13.5638 13.6332 13.7324 13.3385 13.8502C13.0335 13.9721 12.7093 14.034 12.3752 14.034Z" fill="#4B6188"/>
<path d="M2.625 0.283515C2.31099 0.283515 2.00654 0.341571 1.7201 0.456068C1.44327 0.566721 1.1946 0.725189 0.980976 0.92707C0.767356 1.12895 0.599674 1.36396 0.482587 1.62558C0.361432 1.89628 0.3 2.184 0.3 2.48075V11.695C0.3 11.9917 0.361432 12.2795 0.482587 12.5502C0.599674 12.8118 0.767356 13.0468 0.980976 13.2487C1.1946 13.4505 1.44327 13.609 1.7201 13.7197C2.00654 13.8342 2.31099 13.8922 2.625 13.8922H12.375C12.689 13.8922 12.9935 13.8342 13.2799 13.7197C13.5567 13.609 13.8054 13.4505 14.019 13.2487C14.2326 13.0468 14.4003 12.8118 14.5174 12.5502C14.6386 12.2795 14.7 11.9917 14.7 11.695V2.48075C14.7 2.184 14.6386 1.89628 14.5174 1.62558C14.4003 1.36396 14.2326 1.12895 14.019 0.92707C13.8054 0.725189 13.5567 0.566721 13.2799 0.456068C12.9935 0.341571 12.689 0.283515 12.375 0.283515H2.625ZM2.625 0H12.375C13.8247 0 15 1.11067 15 2.48075V11.695C15 13.0651 13.8247 14.1757 12.375 14.1757H2.625C1.17525 14.1757 0 13.0651 0 11.695V2.48075C0 1.11067 1.17525 0 2.625 0Z" fill="#4B6188"/>
<path d="M8.8089 5.09356H9.46058V3.96942H8.27648C8.17778 3.96552 6.9738 3.94376 6.66173 5.06804C6.65715 5.07988 6.55748 5.34723 6.55748 5.97203L5.47493 5.97508V7.15436L6.5589 7.15131V10.2609H8.2146V7.154H9.31058V5.97196H8.21468V5.60006C8.2146 5.36892 8.31773 5.09356 8.8089 5.09356Z" fill="white"/>
<path d="M9.03653 6.23087V6.89508H7.9407V10.002H6.83295V6.89167L5.74898 6.89472V6.23357L6.83573 6.23052L6.83295 6.09883C6.81878 5.4371 6.9186 5.15869 6.92295 5.14544C7.1922 4.17681 8.22045 4.22557 8.2647 4.22812H9.18645V4.83435H8.8089C8.16878 4.83435 7.94063 5.22971 7.94063 5.59984V6.23066H9.03645L9.03653 6.23087Z" fill="white"/>
</g>
<defs>
<clipPath id="clip0_1_1170">
<path d="M0 7.08787C0 3.17335 3.17335 0 7.08786 0H7.91214C11.8267 0 15 3.17335 15 7.08787C15 11.0024 11.8267 14.1757 7.91214 14.1757H7.08786C3.17335 14.1757 0 11.0024 0 7.08787Z" fill="white"/>
</clipPath>
</defs>
</svg>