<svg xmlns="http://www.w3.org/2000/svg" width="18" height="18" viewBox="0 0 18 18" fill="none">
<path d="M10.7598 6.56258C12.7321 10.1498 12.5309 14.1491 10.3104 15.4953C8.08988 16.8414 4.69088 15.0248 2.71854 11.4376C0.746191 7.85037 0.947387 3.85107 3.16792 2.50489C5.38845 1.15869 8.78745 2.97539 10.7598 6.56258Z" fill="#94A2B3"/>
<path d="M6.73913 6.56258C4.7668 10.1498 4.96797 14.1491 7.1885 15.4953C9.40902 16.8414 12.808 15.0248 14.7804 11.4376C16.7527 7.85037 16.5515 3.85107 14.331 2.50489C12.1105 1.15869 8.71145 2.97539 6.73913 6.56258Z" fill="#94A2B3"/>
<path d="M10.7598 6.56258C12.7321 10.1498 12.5309 14.1491 10.3104 15.4953C8.08988 16.8414 4.69088 15.0248 2.71854 11.4376C0.746191 7.85037 0.947387 3.85107 3.16792 2.50489C5.38845 1.15869 8.78745 2.97539 10.7598 6.56258Z" fill="#94A2B3" stroke="#94A2B3" stroke-width="2" stroke-linecap="round" stroke-linejoin="round"/>
<path d="M6.73913 6.56258C4.7668 10.1498 4.96797 14.1491 7.1885 15.4953C9.40902 16.8414 12.808 15.0248 14.7804 11.4376C16.7527 7.85037 16.5515 3.85107 14.331 2.50489C12.1105 1.15869 8.71145 2.97539 6.73913 6.56258Z" fill="#94A2B3" stroke="#94A2B3" stroke-width="2" stroke-linecap="round" stroke-linejoin="round"/>
</svg>