<svg width="18" height="18" viewBox="0 0 18 18" fill="none" xmlns="http://www.w3.org/2000/svg">
<g id="IdentificationCard">
<path id="Vector" d="M10.3968 7.875H13.0752" stroke="#94A2B3" stroke-width="2" stroke-linecap="round" stroke-linejoin="round"/>
<path id="Vector_2" d="M10.3968 10.125H13.0752" stroke="#94A2B3" stroke-width="2" stroke-linecap="round" stroke-linejoin="round"/>
<path id="Vector_3" d="M6.38587 10.125C7.27342 10.125 7.99293 9.36948 7.99293 8.4375C7.99293 7.50552 7.27342 6.75 6.38587 6.75C5.49832 6.75 4.77881 7.50552 4.77881 8.4375C4.77881 9.36948 5.49832 10.125 6.38587 10.125Z" stroke="#94A2B3" stroke-width="2" stroke-linecap="round" stroke-linejoin="round"/>
<path id="Vector_4" d="M4.31064 11.8125C4.42953 11.3295 4.69787 10.9017 5.07348 10.5962C5.4491 10.2908 5.91072 10.125 6.3858 10.125C6.86088 10.125 7.3225 10.2907 7.69814 10.5961C8.07378 10.9015 8.34214 11.3293 8.46107 11.8123" stroke="#94A2B3" stroke-width="2" stroke-linecap="round" stroke-linejoin="round"/>
<path id="Vector_5" d="M14.6823 3.375H2.89718C2.60133 3.375 2.3615 3.62684 2.3615 3.9375V14.0625C2.3615 14.3732 2.60133 14.625 2.89718 14.625H14.6823C14.9781 14.625 15.218 14.3732 15.218 14.0625V3.9375C15.218 3.62684 14.9781 3.375 14.6823 3.375Z" stroke="#94A2B3" stroke-width="2" stroke-linecap="round" stroke-linejoin="round"/>
</g>
</svg>
