<svg xmlns="http://www.w3.org/2000/svg" width="8" height="8" viewBox="0 0 8 8" fill="none">
<g clip-path="url(#clip0_1_1102)">
<path fill-rule="evenodd" clip-rule="evenodd" d="M4 0.75C2.20508 0.75 0.75 2.20508 0.75 4C0.75 5.79495 2.20508 7.25 4 7.25C5.79495 7.25 7.25 5.79495 7.25 4C7.25 2.20508 5.79495 0.75 4 0.75ZM0 4C0 1.79086 1.79086 0 4 0C6.20915 0 8 1.79086 8 4C8 6.20915 6.20915 8 4 8C1.79086 8 0 6.20915 0 4ZM3.25 3.875C3.25 3.6679 3.4179 3.5 3.625 3.5H4.125C4.33211 3.5 4.5 3.6679 4.5 3.875V5.25H4.625C4.83211 5.25 5 5.4179 5 5.625C5 5.8321 4.83211 6 4.625 6H3.625C3.4179 6 3.25 5.8321 3.25 5.625C3.25 5.4179 3.4179 5.25 3.625 5.25H3.75V4.25H3.625C3.4179 4.25 3.25 4.08211 3.25 3.875ZM4 3C4.27614 3 4.5 2.77614 4.5 2.5C4.5 2.22386 4.27614 2 4 2C3.72386 2 3.5 2.22386 3.5 2.5C3.5 2.77614 3.72386 3 4 3Z" fill="#94A2B3"/>
</g>
<defs>
<clipPath id="clip0_1_1102">
<rect width="8" height="8" fill="white"/>
</clipPath>
</defs>
</svg>