<svg xmlns="http://www.w3.org/2000/svg" width="58" height="58" viewBox="0 0 58 58" fill="none">
<path d="M28.9987 39.875C39.0088 39.875 47.1237 31.7602 47.1237 21.75C47.1237 11.7398 39.0088 3.625 28.9987 3.625C18.9885 3.625 10.8737 11.7398 10.8737 21.75C10.8737 31.7602 18.9885 39.875 28.9987 39.875Z" stroke="#E2A071" stroke-width="2" stroke-linecap="round" stroke-linejoin="round"/>
<path d="M28.9987 32.625C35.0048 32.625 39.8737 27.7561 39.8737 21.75C39.8737 15.7439 35.0048 10.875 28.9987 10.875C22.9926 10.875 18.1237 15.7439 18.1237 21.75C18.1237 27.7561 22.9926 32.625 28.9987 32.625Z" stroke="#E2A071" stroke-width="2" stroke-linecap="round" stroke-linejoin="round"/>
<path d="M39.875 36.2489V54.375L28.9984 48.9375L18.125 54.375V36.2505" stroke="#E2A071" stroke-width="2" stroke-linecap="round" stroke-linejoin="round"/>
</svg>