<svg xmlns="http://www.w3.org/2000/svg" width="16" height="16" viewBox="0 0 16 16" fill="none">
  <path d="M9.27972 1.04133L9.27333 4.1216L9.26694 7.20187L8.97291 6.48681V6.48497L8.59152 13.3422C8.96652 14.2516 9.1668 14.7375 9.16893 14.7394C9.17106 14.7412 9.38412 14.7522 9.64193 14.7632C10.4217 14.7962 11.3891 14.8677 12.1241 14.9465C12.2946 14.9649 12.4395 14.974 12.4501 14.9667C12.4608 14.9594 12.4629 11.8241 12.4608 7.9976L12.4544 1.04133H9.27972Z" fill="url(#paint0_linear_1_1220)"/>
  <path d="M3.53687 1.03211V7.99573C3.53687 11.8259 3.54113 14.963 3.54752 14.9685C3.55391 14.974 3.82876 14.9502 4.16114 14.919C4.49353 14.8879 4.95161 14.8475 5.17959 14.831C5.52902 14.8053 6.5773 14.7485 6.69661 14.7467C6.73284 14.7467 6.73497 14.5908 6.73923 11.7966L6.74562 8.84648L6.99917 9.46253C7.03752 9.55787 7.0503 9.58721 7.08865 9.68072L7.47004 2.82527C7.38907 2.62909 7.43169 2.73176 7.34007 2.50808C7.029 1.75084 6.76479 1.11095 6.75414 1.08162L6.73284 1.03028H3.53687V1.03211Z" fill="url(#paint1_linear_1_1220)"/>
  <path d="M3.53687 1.03211L6.74351 8.85193V8.84826L6.99705 9.46432C8.40542 12.8948 9.1618 14.7356 9.16606 14.7393C9.1682 14.7411 9.38126 14.7521 9.63907 14.7631C10.4189 14.7961 11.3862 14.8676 12.1213 14.9464C12.2896 14.9648 12.4366 14.9739 12.4451 14.9666L9.2662 7.19996V7.20179L8.97217 6.48673C8.68454 5.78817 8.49278 5.32064 7.33583 2.50807C7.02475 1.75084 6.76055 1.11095 6.7499 1.08162L6.72859 1.03028H5.13273L3.53687 1.03211Z" fill="#E30A17"/>
  <defs>
    <linearGradient id="paint0_linear_1_1220" x1="13.8926" y1="11.4552" x2="8.81147" y2="13.6867" gradientUnits="userSpaceOnUse">
      <stop stop-color="#B20610"/>
      <stop offset="0.255959" stop-color="#B20610"/>
      <stop offset="1" stop-color="#590004"/>
    </linearGradient>
    <linearGradient id="paint1_linear_1_1220" x1="1.99603" y1="4.08558" x2="7.49114" y2="1.7002" gradientUnits="userSpaceOnUse">
      <stop stop-color="#B20610"/>
      <stop offset="0.255959" stop-color="#B20610"/>
      <stop offset="1" stop-color="#590004"/>
    </linearGradient>
  </defs>
</svg>