<svg xmlns="http://www.w3.org/2000/svg" width="16" height="16" viewBox="0 0 16 16" fill="none">
  <path d="M0.34558 10.9774C-0.253238 11.3968 -0.142362 12.1192 1.22385 12.571C2.59006 13.0227 4.17802 13.1161 5.57526 12.8645C5.53534 12.8645 5.6551 12.8645 5.57526 12.8645V11.4387L4.21794 11.9C3.69896 12.0677 3.17999 12.1097 2.66101 11.9839C2.2618 11.8581 2.34164 11.6065 2.8207 11.3968L5.57526 10.3903V8.83871L1.74282 10.2226C1.26377 10.3903 0.784714 10.6419 0.34558 10.9774ZM9.6073 4.6871V8.75484C11.2441 9.59355 12.5216 8.75484 12.5216 6.57419C12.5216 4.35161 11.763 3.34516 9.56738 2.54839C8.40967 2.12903 7.21203 1.75161 6.01439 1.5V13.6194L8.80888 14.5V4.30968C8.80888 3.84839 8.80888 3.5129 9.12825 3.63871C9.56738 3.76452 9.6073 4.22581 9.6073 4.6871ZM14.7971 10.0129C13.6393 9.59355 12.4018 9.42581 11.2042 9.55161C10.539 9.59528 9.91469 9.79345 9.28793 10.0129V11.6484L11.8828 10.6419C12.4018 10.4742 12.9208 10.4323 13.4397 10.5581C13.839 10.6839 13.7591 10.9355 13.2801 11.1452L9.28793 12.6968V14.2903L14.7971 12.1516C15.1963 11.9839 15.5556 11.7742 15.8749 11.4387C16.1544 11.0194 16.0346 10.4323 14.7971 10.0129Z" fill="#0070D1"/>
</svg>