<svg xmlns="http://www.w3.org/2000/svg" width="16" height="14" viewBox="0 0 16 14" fill="none">
<path d="M12.875 13.365H3.12496C2.79078 13.365 2.46666 13.3061 2.16163 13.19C1.86692 13.0778 1.60222 12.9172 1.37487 12.7126C1.14753 12.508 0.969049 12.2697 0.844399 12.0045C0.715381 11.73 0.649963 11.4383 0.649963 11.1375V2.36249C0.649963 2.06173 0.715381 1.77002 0.844399 1.49549C0.969049 1.23026 1.14753 0.992028 1.37487 0.787414C1.60222 0.5828 1.86692 0.422171 2.16163 0.309986C2.46666 0.19387 2.79078 0.134995 3.12496 0.134995H12.875C13.2092 0.134995 13.5333 0.19387 13.8383 0.309986C14.133 0.422171 14.3977 0.5828 14.6251 0.787414C14.8524 0.992028 15.0309 1.23026 15.1555 1.49549C15.2845 1.77002 15.35 2.06173 15.35 2.36249V11.1375C15.35 11.4383 15.2845 11.73 15.1555 12.0045C15.0309 12.2697 14.8524 12.508 14.6251 12.7126C14.3977 12.9172 14.133 13.0778 13.8383 13.19C13.5333 13.3061 13.2092 13.365 12.875 13.365Z" fill="#1DA1F2"/>
<path d="M3.125 0.27C2.81099 0.27 2.50654 0.325289 2.2201 0.434328C1.94327 0.539706 1.6946 0.690621 1.48098 0.882879C1.26736 1.07514 1.09967 1.29895 0.982587 1.54809C0.861432 1.80589 0.8 2.0799 0.8 2.3625V11.1375C0.8 11.4201 0.861432 11.6941 0.982587 11.9519C1.09967 12.2011 1.26736 12.4249 1.48098 12.6171C1.6946 12.8094 1.94327 12.9603 2.2201 13.0657C2.50654 13.1747 2.81099 13.23 3.125 13.23H12.875C13.189 13.23 13.4935 13.1747 13.7799 13.0657C14.0567 12.9603 14.3054 12.8094 14.519 12.6171C14.7326 12.4249 14.9003 12.2011 15.0174 11.9519C15.1386 11.6941 15.2 11.4201 15.2 11.1375V2.3625C15.2 2.0799 15.1386 1.80589 15.0174 1.54809C14.9003 1.29895 14.7326 1.07514 14.519 0.882879C14.3054 0.690621 14.0567 0.539706 13.7799 0.434328C13.4935 0.325289 13.189 0.27 12.875 0.27H3.125ZM3.125 0H12.875C14.3247 0 15.5 1.05773 15.5 2.3625V11.1375C15.5 12.4423 14.3247 13.5 12.875 13.5H3.125C1.67525 13.5 0.5 12.4423 0.5 11.1375V2.3625C0.5 1.05773 1.67525 0 3.125 0Z" fill="#314E55"/>
<path d="M11.944 4.46567C11.9176 4.44963 11.8863 4.44142 11.8545 4.44218C11.8226 4.44294 11.7918 4.45264 11.7664 4.46993C11.6747 4.52318 11.5731 4.56122 11.4664 4.58225C11.7787 4.26736 11.7854 4.0571 11.782 4.0085C11.7803 3.98397 11.7713 3.96031 11.7559 3.93998C11.7406 3.91966 11.7194 3.90342 11.6947 3.89296C11.67 3.8825 11.6426 3.8782 11.6154 3.88051C11.5882 3.88282 11.5622 3.89166 11.5401 3.9061C11.276 4.08125 10.9589 4.1801 10.631 4.1896C10.3155 3.9157 9.89408 3.76296 9.45575 3.76367C8.99831 3.76689 8.56097 3.93328 8.23967 4.22634C7.91837 4.5194 7.73937 4.91521 7.74192 5.32691C7.7419 5.40098 7.74764 5.47496 7.7591 5.54831C6.12132 5.53163 4.79135 4.11933 4.7777 4.10455C4.76196 4.08758 4.7419 4.07429 4.71923 4.06579C4.69656 4.0573 4.67194 4.05386 4.64747 4.05576C4.62301 4.05766 4.59941 4.06485 4.57869 4.07672C4.55798 4.08859 4.54075 4.10478 4.52847 4.12392C4.0571 4.85987 4.37255 5.50619 4.66077 5.87642C4.62016 5.85723 4.58107 5.83553 4.54377 5.81149C4.52125 5.7964 4.49453 5.78721 4.46657 5.78491C4.43861 5.78261 4.41048 5.78731 4.38529 5.79847C4.3601 5.80964 4.33883 5.82685 4.32381 5.8482C4.30879 5.86955 4.30061 5.89422 4.30017 5.91949C4.28757 6.62034 4.66257 7.02203 5.01507 7.24411C4.99007 7.24187 4.96484 7.24523 4.94162 7.25387C4.91841 7.26252 4.89792 7.27619 4.88198 7.29367C4.86605 7.31115 4.85515 7.3319 4.85026 7.35409C4.84538 7.37627 4.84665 7.39919 4.85397 7.42082C4.9333 7.6783 5.08899 7.9115 5.30435 8.09542C5.51971 8.27934 5.78662 8.40704 6.07647 8.46485C5.29392 9.01308 4.14252 8.83664 4.12977 8.83461C4.0965 8.83262 4.06327 8.83905 4.03384 8.85317C4.00442 8.8673 3.97997 8.88855 3.96327 8.91453C3.95326 8.94312 3.95234 8.97366 3.96061 9.00269C3.96888 9.03173 3.98601 9.0581 4.01007 9.07883C4.83597 9.64583 5.8238 9.77178 6.53757 9.77178C6.85949 9.77385 7.18085 9.74733 7.49697 9.6926C11.1114 8.92175 11.2131 5.94203 11.2049 5.4536C11.8834 4.88573 11.9895 4.66939 12.0059 4.61593C12.0144 4.58821 12.0129 4.5588 12.0018 4.53184C11.9907 4.50488 11.9705 4.48174 11.944 4.46567Z" fill="#314E55"/>
<path d="M10.9468 5.29437C10.93 5.30829 10.9169 5.32541 10.9085 5.34447C10.9001 5.36353 10.8965 5.38405 10.898 5.40453C10.9076 5.53636 11.0924 8.64365 7.42929 9.4249C7.41271 9.42807 5.95659 9.70165 4.69426 9.1387C5.22759 9.1252 5.99236 8.99965 6.52516 8.46127C6.54474 8.44151 6.55755 8.41707 6.56204 8.39091C6.56654 8.36474 6.56253 8.33796 6.55049 8.3138C6.53846 8.28964 6.51891 8.26913 6.49422 8.25475C6.46952 8.24036 6.44073 8.23271 6.41131 8.23271H6.40974C6.16298 8.22538 5.92312 8.15757 5.71603 8.03658C5.50893 7.9156 5.34246 7.74604 5.23456 7.54617C5.39591 7.55952 5.55849 7.53871 5.70931 7.48542C5.73842 7.47333 5.76256 7.45329 5.77829 7.42815C5.79403 7.40301 5.80056 7.37404 5.79696 7.34537C5.79337 7.3167 5.77983 7.28978 5.75826 7.26842C5.7367 7.24707 5.70821 7.23238 5.67684 7.22642C5.63581 7.21866 4.74421 7.03925 4.61934 6.16377C4.76858 6.22772 4.93464 6.25308 5.09896 6.23701C5.12782 6.2331 5.15483 6.22183 5.17678 6.20453C5.19874 6.18723 5.21472 6.16463 5.22285 6.13941C5.23097 6.11418 5.23088 6.08739 5.22261 6.06221C5.21433 6.03702 5.1982 6.0145 5.17614 5.99732C5.13804 5.96741 4.30059 5.29761 4.69764 4.43388C5.12859 4.84084 6.40531 5.89863 7.95196 5.81864C7.97438 5.81747 7.99623 5.81187 8.01595 5.80222C8.03568 5.79258 8.0528 5.77913 8.06609 5.76284C8.07938 5.74656 8.08851 5.72783 8.09283 5.70801C8.09715 5.68818 8.09656 5.66774 8.09109 5.64814C8.06179 5.54305 8.04695 5.43512 8.04691 5.32677C8.04434 4.98791 8.1912 4.66196 8.45529 4.42042C8.71938 4.17888 9.07913 4.04147 9.45564 4.03833C9.64307 4.03808 9.82861 4.07201 10.0011 4.13806C10.1735 4.20412 10.3293 4.30094 10.4591 4.42268C10.4872 4.44876 10.5256 4.46377 10.5659 4.46439C10.8151 4.46669 11.0623 4.42476 11.2934 4.341C11.1747 4.46948 11.0402 4.58542 10.8925 4.6866C10.8668 4.70483 10.8482 4.73003 10.8396 4.75847C10.831 4.78691 10.8328 4.81708 10.8448 4.84453C10.8567 4.87197 10.8781 4.89523 10.9059 4.91087C10.9337 4.92651 10.9663 4.93369 10.9989 4.93136C11.1406 4.92025 11.2814 4.90127 11.4205 4.87452C11.309 4.98299 11.1561 5.1211 10.9468 5.29437Z" fill="white"/>
</svg>